<svg id="brandLogo4" xmlns="http://www.w3.org/2000/svg" width="168" height="27.638" viewBox="0 0 168 27.638">
  <defs>
    <style>
      .cls-1 {
        fill: #fdfff7;
      }

      .cls-2 {
        fill: #217bff;
      }
    </style>
  </defs>
  <path id="Path_1" data-name="Path 1" class="cls-1" d="M134.057,112.384a5.1,5.1,0,0,1,2.144,2.187,7.544,7.544,0,0,1,.784,3.588v8.791h-1.891v-8.571a5.244,5.244,0,0,0-1.223-3.741,4.37,4.37,0,0,0-3.341-1.293,4.531,4.531,0,0,0-3.466,1.375,5.7,5.7,0,0,0-1.293,4.042v8.193h-1.93V106.61h1.925V114.5a4.985,4.985,0,0,1,2.1-2.089A6.934,6.934,0,0,1,134.057,112.384Z" transform="translate(-123.84 -106.61)"/>
  <path id="Path_2" data-name="Path 2" class="cls-1" d="M228.863,142.411H216.408a6.062,6.062,0,0,0,.825,2.914,4.863,4.863,0,0,0,1.953,1.829,5.726,5.726,0,0,0,2.639.619,5.29,5.29,0,0,0,3.148-.909,4.254,4.254,0,0,0,1.683-2.447h2.035a6.36,6.36,0,0,1-2.338,3.589,7.192,7.192,0,0,1-4.523,1.388,7.562,7.562,0,0,1-3.793-.948,6.687,6.687,0,0,1-2.619-2.7,8.423,8.423,0,0,1-.948-4.083,8.6,8.6,0,0,1,.935-4.1,6.509,6.509,0,0,1,2.619-2.7,7.719,7.719,0,0,1,3.821-.935,7.342,7.342,0,0,1,3.754.935,6.485,6.485,0,0,1,2.475,2.516,7.2,7.2,0,0,1,.866,3.507C228.92,141.559,228.9,142.064,228.863,142.411Zm-2.57-4.427a4.559,4.559,0,0,0-1.912-1.788,5.8,5.8,0,0,0-2.639-.606,5.252,5.252,0,0,0-3.657,1.375,5.517,5.517,0,0,0-1.683,3.878h10.559a5.336,5.336,0,0,0-.668-2.858Z" transform="translate(-197.518 -128.828)"/>
  <path id="Path_3" data-name="Path 3" class="cls-1" d="M317.341,135.13,308.432,157.2h-2.007l2.914-7.132-6.16-14.93H305.3l5.114,12.813,4.949-12.813Z" transform="translate(-269.635 -129.795)"/>
  <path id="Path_4" data-name="Path 4" class="cls-2" d="M397.112,127.875h6.16V131.5H392.41V112.2h4.7Z" transform="translate(-342.174 -111.154)"/>
  <path id="Path_5" data-name="Path 5" class="cls-2" d="M460.654,135.857a6.67,6.67,0,0,1,2.432-2.75,6.359,6.359,0,0,1,3.438-.963,5.9,5.9,0,0,1,2.845.66,4.863,4.863,0,0,1,1.885,1.743v-2.175h4.7V147.71h-4.7v-2.168a5.075,5.075,0,0,1-1.9,1.725,5.918,5.918,0,0,1-2.847.66,6.242,6.242,0,0,1-3.41-.976,6.75,6.75,0,0,1-2.432-2.778,10.174,10.174,0,0,1-.007-8.316Zm9.631,1.408a3.3,3.3,0,0,0-4.757-.013,3.789,3.789,0,0,0-.975,2.763,3.911,3.911,0,0,0,.975,2.791,3.271,3.271,0,0,0,4.757.015,4.439,4.439,0,0,0,0-5.555Z" transform="translate(-396.932 -127.367)"/>
  <path id="Path_6" data-name="Path 6" class="cls-2" d="M576.127,126.957l-4.676-6.433v6.433h-4.7V106.61h4.7v11.247l4.646-6.242h5.8l-6.38,7.7,6.431,7.643Z" transform="translate(-483.904 -106.61)"/>
  <path id="Path_7" data-name="Path 7" class="cls-2" d="M658.882,147.275a6.067,6.067,0,0,1-2.475-1.884,4.955,4.955,0,0,1-1.018-2.68h4.646a1.789,1.789,0,0,0,.748,1.293,2.619,2.619,0,0,0,1.624.5,2.3,2.3,0,0,0,1.36-.344,1.05,1.05,0,0,0,.481-.894,1.033,1.033,0,0,0-.687-.976,14.172,14.172,0,0,0-2.228-.7,20.845,20.845,0,0,1-2.75-.81,4.753,4.753,0,0,1-1.9-1.347,3.639,3.639,0,0,1-.81-2.49,4.22,4.22,0,0,1,.728-2.405,4.917,4.917,0,0,1,2.145-1.719,8.231,8.231,0,0,1,3.367-.632,6.746,6.746,0,0,1,4.549,1.429,5.649,5.649,0,0,1,1.93,3.8h-4.354a1.87,1.87,0,0,0-.7-1.264,2.432,2.432,0,0,0-1.554-.468,2.153,2.153,0,0,0-1.264.316,1.008,1.008,0,0,0-.44.866,1.057,1.057,0,0,0,.7.99,11.117,11.117,0,0,0,2.188.66,23.9,23.9,0,0,1,2.778.866,4.8,4.8,0,0,1,1.882,1.379,3.9,3.9,0,0,1,.838,2.544,4.04,4.04,0,0,1-.748,2.405,5.007,5.007,0,0,1-2.172,1.663,8.3,8.3,0,0,1-3.286.606A8.818,8.818,0,0,1,658.882,147.275Z" transform="translate(-555.964 -127.395)"/>
  <path id="Path_8" data-name="Path 8" class="cls-2" d="M757.671,113.2a6.855,6.855,0,0,1,1.6,4.8v8.963h-4.676v-8.331a3.365,3.365,0,0,0-.8-2.392,3.127,3.127,0,0,0-4.289,0,3.366,3.366,0,0,0-.8,2.392v8.331H744V106.61h4.7v7.067a5.05,5.05,0,0,1,1.953-1.622,6.223,6.223,0,0,1,2.776-.606A5.462,5.462,0,0,1,757.671,113.2Z" transform="translate(-628 -106.61)"/>
  <path id="Path_9" data-name="Path 9" class="cls-2" d="M853.487,133.37,843.864,156h-5.05l3.518-7.809-6.242-14.82h5.252l3.554,9.6,3.52-9.6Z" transform="translate(-702.864 -128.365)"/>
  <path id="Path_10" data-name="Path 10" class="cls-2" d="M936.313,135.857a6.657,6.657,0,0,1,2.432-2.75,6.36,6.36,0,0,1,3.438-.963,5.905,5.905,0,0,1,2.845.66,4.864,4.864,0,0,1,1.885,1.743v-2.175h4.7V147.71h-4.7v-2.168A5.081,5.081,0,0,1,945,147.267a5.905,5.905,0,0,1-2.845.66,6.236,6.236,0,0,1-3.41-.976,6.734,6.734,0,0,1-2.432-2.778,10.126,10.126,0,0,1,0-8.316Zm9.624,1.4a3.3,3.3,0,0,0-4.757-.013,3.822,3.822,0,0,0-.976,2.77,3.9,3.9,0,0,0,.976,2.791,3.271,3.271,0,0,0,4.757.015,4.439,4.439,0,0,0,0-5.555Z" transform="translate(-783.614 -127.367)"/>
</svg>
