<svg id="Layer_1" data-name="Layer 1" xmlns="http://www.w3.org/2000/svg" viewBox="0 0 230.4 25">
  <g id="Group_12" data-name="Group 12">
    <g id="Swipe_for_more" data-name="Swipe for more" style="isolation: isolate">
      <g style="isolation: isolate">
        <path d="M48.05,18.74a3.75,3.75,0,0,1-1.46-1.15A2.86,2.86,0,0,1,46,16h2.12A1.45,1.45,0,0,0,48.74,17a2.17,2.17,0,0,0,1.37.42,2.36,2.36,0,0,0,1.35-.33,1,1,0,0,0,.47-.85.88.88,0,0,0-.53-.83,10,10,0,0,0-1.68-.6,15.72,15.72,0,0,1-1.82-.59,3.18,3.18,0,0,1-1.21-.88,2.29,2.29,0,0,1-.52-1.57,2.46,2.46,0,0,1,.47-1.45A3.15,3.15,0,0,1,48,9.3a5,5,0,0,1,2-.38,4.17,4.17,0,0,1,2.73.86,3,3,0,0,1,1.1,2.33h-2A1.51,1.51,0,0,0,51.23,11a2,2,0,0,0-1.31-.39,2.2,2.2,0,0,0-1.25.3,1,1,0,0,0-.43.81.88.88,0,0,0,.29.67,2,2,0,0,0,.7.42c.28.11.69.23,1.23.39a12.55,12.55,0,0,1,1.77.59,3.19,3.19,0,0,1,1.2.87A2.31,2.31,0,0,1,54,16.23a2.58,2.58,0,0,1-.47,1.51,3.09,3.09,0,0,1-1.32,1,4.81,4.81,0,0,1-2,.38A5,5,0,0,1,48.05,18.74Z"/>
        <path d="M69.82,9.08,66.75,19H64.59l-2-7.33-2,7.33H58.43l-3.1-9.92h2.09l2.07,8,2.11-8h2.14l2,7.94,2-7.94Z"/>
        <path d="M71.8,7.39a1.27,1.27,0,0,1-.37-.94,1.26,1.26,0,0,1,.37-.93,1.31,1.31,0,0,1,.94-.38A1.3,1.3,0,0,1,74,6.45a1.27,1.27,0,0,1-.38.94,1.26,1.26,0,0,1-.92.38A1.31,1.31,0,0,1,71.8,7.39Zm2,1.69V19h-2V9.08Z"/>
        <path d="M80.26,9.39a4.38,4.38,0,0,1,2-.47,4.49,4.49,0,0,1,4,2.43A5.54,5.54,0,0,1,87,14a5.71,5.71,0,0,1-.61,2.67,4.51,4.51,0,0,1-1.68,1.83,4.46,4.46,0,0,1-2.37.66,4.27,4.27,0,0,1-2-.46,4.34,4.34,0,0,1-1.44-1.14v6.16h-2V9.08h2v1.46A4.11,4.11,0,0,1,80.26,9.39Zm4.19,2.83a3,3,0,0,0-2.6-1.52,2.85,2.85,0,0,0-1.47.4,2.93,2.93,0,0,0-1.11,1.15A3.5,3.5,0,0,0,78.84,14a3.54,3.54,0,0,0,.43,1.79A2.89,2.89,0,0,0,80.38,17a2.85,2.85,0,0,0,1.47.4A2.78,2.78,0,0,0,83.33,17a2.94,2.94,0,0,0,1.12-1.17,3.74,3.74,0,0,0,.42-1.8A3.58,3.58,0,0,0,84.45,12.22Z"/>
        <path d="M98.35,14.81H90.78a2.73,2.73,0,0,0,.88,1.9,2.77,2.77,0,0,0,1.94.72,2.39,2.39,0,0,0,2.34-1.38h2.22a4.5,4.5,0,0,1-1.63,2.24,4.8,4.8,0,0,1-2.93.87,5,5,0,0,1-2.55-.64,4.49,4.49,0,0,1-1.76-1.8A5.43,5.43,0,0,1,88.65,14a5.68,5.68,0,0,1,.62-2.69A4.44,4.44,0,0,1,91,9.55a5.19,5.19,0,0,1,2.58-.63,5,5,0,0,1,2.5.61,4.23,4.23,0,0,1,1.71,1.72,5.18,5.18,0,0,1,.62,2.55A6.18,6.18,0,0,1,98.35,14.81Zm-2.07-1.66a2.33,2.33,0,0,0-.81-1.82,2.9,2.9,0,0,0-2-.68,2.64,2.64,0,0,0-1.82.67,2.86,2.86,0,0,0-.9,1.83Z"/>
        <path d="M110,10.76h-1.83V19h-2.07V10.76h-1.17V9.08h1.17v-.7A3.1,3.1,0,0,1,107,5.89a4.29,4.29,0,0,1,2.85-.79V6.81a1.88,1.88,0,0,0-1.31.36,1.55,1.55,0,0,0-.38,1.21v.7H110Z"/>
        <path d="M113.89,18.52a4.47,4.47,0,0,1-1.78-1.8,5.33,5.33,0,0,1-.65-2.69,5.35,5.35,0,0,1,.66-2.68,4.63,4.63,0,0,1,1.82-1.8,5.58,5.58,0,0,1,5.15,0,4.63,4.63,0,0,1,1.82,1.8,5.35,5.35,0,0,1,.66,2.68,5.16,5.16,0,0,1-.68,2.68A4.76,4.76,0,0,1,119,18.52a5.36,5.36,0,0,1-2.6.64A5,5,0,0,1,113.89,18.52Zm4-1.52A2.92,2.92,0,0,0,119,15.87a3.76,3.76,0,0,0,.43-1.84,3.63,3.63,0,0,0-.42-1.82A2.77,2.77,0,0,0,118,11.08a3,3,0,0,0-1.48-.38,3,3,0,0,0-1.47.38,2.72,2.72,0,0,0-1.07,1.13,3.86,3.86,0,0,0-.39,1.82,3.53,3.53,0,0,0,.81,2.48,2.73,2.73,0,0,0,2.07.87A3.08,3.08,0,0,0,117.91,17Z"/>
        <path d="M127.2,9.34A3.56,3.56,0,0,1,129,8.92V11h-.52a2.5,2.5,0,0,0-1.83.62,2.92,2.92,0,0,0-.62,2.12V19h-2V9.08h2v1.44A3.23,3.23,0,0,1,127.2,9.34Z"/>
        <path d="M150.33,9.41a3.49,3.49,0,0,1,1.46,1.44,4.68,4.68,0,0,1,.53,2.3V19h-2V13.46a2.92,2.92,0,0,0-.66-2.05,2.7,2.7,0,0,0-3.65,0,2.88,2.88,0,0,0-.67,2.05V19h-2V13.46a2.92,2.92,0,0,0-.66-2.05,2.7,2.7,0,0,0-3.65,0,2.88,2.88,0,0,0-.67,2.05V19h-2.06V9.08h2.06v1.14a3.4,3.4,0,0,1,1.27-1,4,4,0,0,1,1.66-.34,4.45,4.45,0,0,1,2.12.5,3.52,3.52,0,0,1,1.45,1.46,3.27,3.27,0,0,1,1.4-1.43,4.18,4.18,0,0,1,2-.53A4.4,4.4,0,0,1,150.33,9.41Z"/>
        <path d="M157,18.52a4.53,4.53,0,0,1-1.78-1.8A5.44,5.44,0,0,1,154.6,14a5.25,5.25,0,0,1,.67-2.68,4.57,4.57,0,0,1,1.82-1.8,5.56,5.56,0,0,1,5.14,0,4.57,4.57,0,0,1,1.82,1.8,5.25,5.25,0,0,1,.67,2.68,5.17,5.17,0,0,1-.69,2.68,4.63,4.63,0,0,1-1.86,1.81,5.33,5.33,0,0,1-2.6.64A5,5,0,0,1,157,18.52Zm4-1.52a2.86,2.86,0,0,0,1.13-1.13,3.66,3.66,0,0,0,.43-1.84,3.74,3.74,0,0,0-.41-1.82,2.79,2.79,0,0,0-1.1-1.13,3,3,0,0,0-1.48-.38,3,3,0,0,0-1.46.38,2.66,2.66,0,0,0-1.07,1.13,3.74,3.74,0,0,0-.4,1.82,3.49,3.49,0,0,0,.82,2.48,2.7,2.7,0,0,0,2.06.87A3,3,0,0,0,161.05,17Z"/>
        <path d="M170.34,9.34a3.58,3.58,0,0,1,1.78-.42V11h-.53a2.48,2.48,0,0,0-1.82.62,2.87,2.87,0,0,0-.62,2.12V19h-2.06V9.08h2.06v1.44A3.21,3.21,0,0,1,170.34,9.34Z"/>
        <path d="M183.37,14.81h-7.58a2.73,2.73,0,0,0,.88,1.9,2.79,2.79,0,0,0,1.94.72A2.39,2.39,0,0,0,181,16.05h2.22a4.44,4.44,0,0,1-1.63,2.24,4.8,4.8,0,0,1-2.93.87,5,5,0,0,1-2.54-.64,4.51,4.51,0,0,1-1.77-1.8,5.54,5.54,0,0,1-.64-2.69,5.57,5.57,0,0,1,.63-2.69A4.35,4.35,0,0,1,176,9.55a5.19,5.19,0,0,1,2.58-.63,5.07,5.07,0,0,1,2.51.61,4.35,4.35,0,0,1,1.71,1.72,5.28,5.28,0,0,1,.61,2.55A7.63,7.63,0,0,1,183.37,14.81Zm-2.07-1.66a2.39,2.39,0,0,0-.81-1.82,3,3,0,0,0-2-.68,2.62,2.62,0,0,0-1.81.67,2.77,2.77,0,0,0-.9,1.83Z"/>
      </g>
    </g>
    <path id="Icon_Keyboard_Arrow_-_Up_Dark" data-name="Icon Keyboard Arrow - Up Dark" d="M223,17.3l4.6-4.6L223,8.1l1.4-1.4,6,6-6,6Z"/>
    <path id="Icon_Keyboard_Arrow_-_Up_Dark-2" data-name="Icon Keyboard Arrow - Up Dark-2" d="M7.4,17.3,2.8,12.7,7.4,8.1,6,6.7l-6,6,6,6Z"/>
  </g>
</svg>
