<?xml version="1.0" encoding="utf-8"?>
<!-- Generator: Adobe Illustrator 24.1.0, SVG Export Plug-In . SVG Version: 6.00 Build 0)  -->
<svg version="1.1" id="Layer_1" xmlns="http://www.w3.org/2000/svg" xmlns:xlink="http://www.w3.org/1999/xlink" x="0px" y="0px"
	 viewBox="0 0 230.4 25" style="enable-background:new 0 0 230.4 25;" xml:space="preserve">
<style type="text/css">
	.st0{fill:#FFFFFF;}
</style>
<g id="Group_12">
	<g id="Swipe_for_more">
		<g>
			<path class="st0" d="M48,18.7c-0.6-0.3-1.1-0.7-1.5-1.1c-0.4-0.5-0.6-1-0.6-1.6h2.1c0.1,0.4,0.3,0.8,0.6,1
				c0.4,0.3,0.9,0.4,1.4,0.4c0.5,0,0.9-0.1,1.3-0.3c0.3-0.2,0.5-0.5,0.5-0.9c0-0.4-0.2-0.7-0.5-0.8c-0.5-0.2-1.1-0.5-1.7-0.6
				c-0.6-0.2-1.2-0.4-1.8-0.6c-0.5-0.2-0.9-0.5-1.2-0.9c-0.4-0.4-0.5-1-0.5-1.6c0-0.5,0.2-1,0.5-1.4c0.4-0.5,0.8-0.8,1.4-1
				c0.6-0.3,1.3-0.4,2-0.4c1,0,1.9,0.3,2.7,0.9c0.7,0.6,1.1,1.4,1.1,2.3h-2c0-0.4-0.2-0.8-0.6-1.1c-0.4-0.3-0.8-0.4-1.3-0.4
				c-0.4,0-0.9,0.1-1.2,0.3c-0.3,0.2-0.4,0.5-0.4,0.8c0,0.3,0.1,0.5,0.3,0.7c0.2,0.2,0.4,0.3,0.7,0.4c0.3,0.1,0.7,0.2,1.2,0.4
				c0.6,0.2,1.2,0.3,1.8,0.6c0.5,0.2,0.9,0.5,1.2,0.9c0.4,0.4,0.6,1,0.6,1.6c0,0.5-0.2,1.1-0.5,1.5c-0.3,0.4-0.8,0.8-1.3,1
				c-0.6,0.3-1.3,0.4-2,0.4C49.5,19.2,48.7,19,48,18.7z"/>
			<path class="st0" d="M69.8,9.1L66.8,19h-2.2l-2-7.3l-2,7.3h-2.2l-3.1-9.9h2.1l2.1,8l2.1-8h2.1l2,7.9l2-7.9H69.8z"/>
			<path class="st0" d="M71.8,7.4c-0.2-0.2-0.4-0.6-0.4-0.9c0-0.3,0.1-0.7,0.4-0.9c0.2-0.2,0.6-0.4,0.9-0.4c0.7,0,1.3,0.6,1.3,1.3
				c0,0.4-0.1,0.7-0.4,0.9c-0.2,0.2-0.6,0.4-0.9,0.4C72.4,7.8,72,7.6,71.8,7.4z M73.8,9.1V19h-2V9.1H73.8z"/>
			<path class="st0" d="M80.3,9.4c0.6-0.3,1.3-0.5,2-0.5c1.7,0,3.2,0.9,4,2.4c0.5,0.8,0.7,1.7,0.7,2.6c0,0.9-0.2,1.8-0.6,2.7
				c-0.4,0.8-1,1.4-1.7,1.8c-0.7,0.4-1.5,0.7-2.4,0.7c-0.7,0-1.4-0.1-2-0.5c-0.6-0.3-1-0.7-1.4-1.1v6.2h-2V9.1h2v1.5
				C79.3,10.1,79.7,9.7,80.3,9.4z M84.5,12.2c-0.5-0.9-1.5-1.5-2.6-1.5c-0.5,0-1,0.1-1.5,0.4c-0.5,0.3-0.9,0.7-1.1,1.1
				c-0.3,0.5-0.4,1.1-0.4,1.8c0,0.6,0.1,1.2,0.4,1.8c0.2,0.5,0.6,0.9,1.1,1.2c0.4,0.3,1,0.4,1.5,0.4c0.5,0,1-0.1,1.5-0.4
				c0.5-0.3,0.9-0.7,1.1-1.2c0.3-0.6,0.4-1.2,0.4-1.8C84.9,13.4,84.7,12.8,84.5,12.2z"/>
			<path class="st0" d="M98.3,14.8h-7.6c0,0.7,0.3,1.4,0.9,1.9c0.5,0.5,1.2,0.7,1.9,0.7c1,0.1,1.9-0.5,2.3-1.4h2.2
				c-0.3,0.9-0.9,1.7-1.6,2.2c-0.9,0.6-1.9,0.9-2.9,0.9c-0.9,0-1.8-0.2-2.6-0.6c-0.7-0.4-1.4-1-1.8-1.8c-0.4-0.8-0.7-1.8-0.6-2.7
				c0-0.9,0.2-1.9,0.6-2.7c0.4-0.7,1-1.3,1.7-1.8c0.8-0.4,1.7-0.6,2.6-0.6c0.9,0,1.7,0.2,2.5,0.6c0.7,0.4,1.3,1,1.7,1.7
				c0.4,0.8,0.6,1.7,0.6,2.6C98.4,14.1,98.4,14.5,98.3,14.8z M96.3,13.2c0-0.7-0.3-1.4-0.8-1.8c-0.6-0.5-1.3-0.7-2-0.7
				c-0.7,0-1.3,0.2-1.8,0.7c-0.5,0.5-0.8,1.1-0.9,1.8H96.3z"/>
			<path class="st0" d="M110,10.8h-1.8V19h-2.1v-8.2h-1.2V9.1h1.2V8.4c-0.1-0.9,0.2-1.8,0.9-2.5c0.8-0.6,1.8-0.9,2.8-0.8v1.7
				c-0.5,0-0.9,0.1-1.3,0.4c-0.3,0.3-0.4,0.8-0.4,1.2v0.7h1.8V10.8z"/>
			<path class="st0" d="M113.9,18.5c-0.8-0.4-1.4-1-1.8-1.8c-0.4-0.8-0.7-1.8-0.7-2.7c0-0.9,0.2-1.9,0.7-2.7
				c0.4-0.8,1.1-1.4,1.8-1.8c1.6-0.8,3.5-0.8,5.2,0c0.8,0.4,1.4,1,1.8,1.8c0.5,0.8,0.7,1.7,0.7,2.7c0,0.9-0.2,1.9-0.7,2.7
				c-0.4,0.8-1.1,1.4-1.9,1.8c-0.8,0.4-1.7,0.7-2.6,0.6C115.5,19.2,114.7,19,113.9,18.5z M117.9,17c0.5-0.3,0.9-0.7,1.1-1.1
				c0.3-0.6,0.4-1.2,0.4-1.8c0-0.6-0.1-1.3-0.4-1.8c-0.2-0.5-0.6-0.9-1-1.1c-0.5-0.3-1-0.4-1.5-0.4c-0.5,0-1,0.1-1.5,0.4
				c-0.5,0.3-0.8,0.7-1.1,1.1c-0.3,0.6-0.4,1.2-0.4,1.8c-0.1,0.9,0.2,1.8,0.8,2.5c0.5,0.6,1.3,0.9,2.1,0.9
				C117,17.4,117.5,17.2,117.9,17L117.9,17z"/>
			<path class="st0" d="M127.2,9.3c0.6-0.3,1.2-0.4,1.8-0.4V11h-0.5c-0.7,0-1.3,0.2-1.8,0.6c-0.5,0.6-0.7,1.4-0.6,2.1V19h-2V9.1h2
				v1.4C126.3,10,126.7,9.6,127.2,9.3z"/>
			<path class="st0" d="M150.3,9.4c0.6,0.3,1.1,0.8,1.5,1.4c0.4,0.7,0.6,1.5,0.5,2.3V19h-2v-5.5c0-0.7-0.2-1.5-0.7-2.1
				c-1-0.9-2.6-0.9-3.6,0c-0.5,0.6-0.7,1.3-0.7,2.1V19h-2v-5.5c0-0.7-0.2-1.5-0.7-2.1c-1-0.9-2.6-0.9-3.6,0
				c-0.5,0.6-0.7,1.3-0.7,2.1V19h-2.1V9.1h2.1v1.1c0.3-0.4,0.8-0.8,1.3-1c0.5-0.2,1.1-0.3,1.7-0.3c0.7,0,1.5,0.2,2.1,0.5
				c0.6,0.3,1.1,0.8,1.4,1.5c0.3-0.6,0.8-1.1,1.4-1.4c0.6-0.3,1.3-0.5,2-0.5C149,8.9,149.7,9.1,150.3,9.4z"/>
			<path class="st0" d="M157,18.5c-0.8-0.4-1.4-1-1.8-1.8c-0.4-0.8-0.7-1.8-0.6-2.7c0-0.9,0.2-1.9,0.7-2.7c0.4-0.8,1.1-1.4,1.8-1.8
				c1.6-0.8,3.5-0.8,5.1,0c0.8,0.4,1.4,1,1.8,1.8c0.5,0.8,0.7,1.7,0.7,2.7c0,0.9-0.2,1.9-0.7,2.7c-0.4,0.8-1.1,1.4-1.9,1.8
				c-0.8,0.4-1.7,0.7-2.6,0.6C158.7,19.2,157.8,19,157,18.5z M161,17c0.5-0.3,0.9-0.7,1.1-1.1c0.3-0.6,0.5-1.2,0.4-1.8
				c0-0.6-0.1-1.3-0.4-1.8c-0.3-0.5-0.6-0.9-1.1-1.1c-0.5-0.3-1-0.4-1.5-0.4c-0.5,0-1,0.1-1.5,0.4c-0.5,0.3-0.8,0.7-1.1,1.1
				c-0.3,0.6-0.4,1.2-0.4,1.8c-0.1,0.9,0.2,1.8,0.8,2.5c0.5,0.6,1.3,0.9,2.1,0.9C160.1,17.4,160.6,17.3,161,17L161,17z"/>
			<path class="st0" d="M170.3,9.3c0.5-0.3,1.2-0.4,1.8-0.4V11h-0.5c-0.7,0-1.3,0.2-1.8,0.6c-0.5,0.6-0.7,1.4-0.6,2.1V19h-2.1V9.1
				h2.1v1.4C169.4,10,169.8,9.6,170.3,9.3z"/>
			<path class="st0" d="M183.4,14.8h-7.6c0,0.7,0.3,1.4,0.9,1.9c0.5,0.5,1.2,0.7,1.9,0.7c1,0.1,2-0.5,2.4-1.4h2.2
				c-0.3,0.9-0.9,1.7-1.6,2.2c-0.9,0.6-1.9,0.9-2.9,0.9c-0.9,0-1.8-0.2-2.5-0.6c-0.7-0.4-1.4-1-1.8-1.8c-0.4-0.8-0.7-1.8-0.6-2.7
				c0-0.9,0.2-1.9,0.6-2.7c0.4-0.7,0.9-1.4,1.7-1.8c0.8-0.4,1.7-0.6,2.6-0.6c0.9,0,1.7,0.2,2.5,0.6c0.7,0.4,1.3,1,1.7,1.7
				c0.4,0.8,0.6,1.7,0.6,2.6C183.4,14.1,183.4,14.5,183.4,14.8z M181.3,13.2c0-0.7-0.3-1.4-0.8-1.8c-0.6-0.5-1.3-0.7-2-0.7
				c-0.7,0-1.3,0.2-1.8,0.7c-0.5,0.5-0.8,1.1-0.9,1.8H181.3z"/>
		</g>
	</g>
	<path id="Icon_Keyboard_Arrow_-_Up_Dark" class="st0" d="M223,17.3l4.6-4.6L223,8.1l1.4-1.4l6,6l-6,6L223,17.3z"/>
	<path id="Icon_Keyboard_Arrow_-_Up_Dark-2" class="st0" d="M7.4,17.3l-4.6-4.6l4.6-4.6L6,6.7l-6,6l6,6L7.4,17.3z"/>
</g>
</svg>
